<?xml version="1.0" encoding="utf-8"?>
<!-- Generator: Adobe Illustrator 16.0.0, SVG Export Plug-In . SVG Version: 6.00 Build 0)  -->
<!DOCTYPE svg PUBLIC "-//W3C//DTD SVG 1.1//EN" "http://www.w3.org/Graphics/SVG/1.1/DTD/svg11.dtd">
<svg version="1.1" id="Layer_1" xmlns="http://www.w3.org/2000/svg" xmlns:xlink="http://www.w3.org/1999/xlink" x="0px" y="0px"
	 width="410.541px" height="302.225px" viewBox="0 0 410.541 302.225" enable-background="new 0 0 410.541 302.225"
	 xml:space="preserve">
<g>
	<path fill-rule="evenodd" clip-rule="evenodd" d="M9.424,85.569h41.04c0.682-1.965,1.386-3.896,2.105-5.795H3.626v206.252h404.064
		V79.774h-33.462c0.036,1.875-0.085,3.81-0.346,5.795h28.007v194.654H9.424V85.569z"/>
	<g>
		<path fill-rule="evenodd" clip-rule="evenodd" d="M353.15,127.349c-9.686,11.748-21.744,22.064-34.048,28.271
			c-1.512,1.016-3.354,1.847-5.527,2.494c-8.095,0.135-18.015,1.643-26.559,0h-36.646h-18.928
			c-27.391-1.043-46.196-34.585-63.474-68.417c-82.002,8.536-143.675,45.209-143.675,89.147c0,20.045,12.853,38.582,34.608,53.62
			h112.47c1.093,1.461,2.328,2.814,3.672,4.053H65.11c33.057,20.361,83.238,33.341,139.423,33.341
			c56.181,0,106.363-12.979,139.421-33.341H234.143c1.06-1.226,1.955-2.576,2.644-4.053h113.376
			c21.755-15.038,34.607-33.575,34.607-53.62C384.77,159.727,373.093,141.989,353.15,127.349z M197.98,176.483l6.078,5.796
			l6.076-5.796h10.177l-7.988,10.015h-16.532l-7.985-10.015H197.98z M132.314,195.139c6.615,0.093,14.462,1.598,20.599,3.473
			c2.456,0.754,4.75,1.611,6.652,2.586c5.066,3.075,8.219,7.387,8.219,12.149c0,9.362-12.126,16.951-27.075,16.951
			c-1.598,0-3.16-0.086-4.679-0.254v0.248c-15.586,0-28.669-8.288-32.28-19.476h1.545h8.636h8.495c0,4.34,8.886,7.861,13.488,7.861
			c4.597,0,4.5-0.042,5.391-0.127c5.252-0.168,8.434-1.809,10.137-3.146c0.949-0.747,1.119-1.843,0.244-2.757
			c-7.964-5.525-20.363-1.898-33.922-8.291c-5.119-2.961-8.301-7.117-8.301-11.719c0-8.943,12.002-16.195,26.855-16.267v-0.001
			l0.108,0.001l0.113-0.001c7.899-0.073,15.513,1.69,20.463,4.931c5.896,3.483,9.738,8.8,11.593,14.546h-2.756h-13.939
			c-1.128-4.355-4.423-6.998-10.348-7.6l-9.295-0.09C124.844,188.793,126.636,195.055,132.314,195.139z M199.231,208.05
			c6.617,0.103,14.46,1.6,20.595,3.48c2.452,0.739,4.752,1.612,6.651,2.573c5.068,3.085,8.22,7.393,8.22,12.164
			c0,9.354-12.13,16.934-27.082,16.934c-1.596,0-3.147-0.08-4.67-0.249v0.245c-15.585,0-28.67-8.289-32.284-19.478h1.548h8.637
			h8.495c0,4.355,8.886,7.878,13.481,7.878c4.608,0,4.5-0.045,5.4-0.138c5.24-0.158,8.426-1.802,10.138-3.143
			c0.943-0.739,1.116-1.836,0.246-2.765c-7.967-5.522-20.372-1.896-33.929-8.289c-5.119-2.956-8.305-7.12-8.305-11.719
			c0-8.931,12.007-16.199,26.857-16.268v-0.002l0.104,0.002l0.125-0.002c7.887-0.061,15.508,1.691,20.452,4.942
			c5.908,3.485,9.746,8.803,11.597,14.535h-2.746h-13.955c-1.117-4.342-4.413-6.992-10.335-7.585l-9.302-0.106
			C191.758,201.712,193.546,207.963,199.231,208.05z M276.191,231.114c-0.629,0-1.246-0.016-1.855-0.045l0,0
			c-0.625,0.029-1.239,0.045-1.859,0.045c-17.874,0-32.377-12.26-32.377-27.38c0-15.106,14.503-27.364,32.377-27.364
			s32.365,12.258,32.365,27.364c0,1.285-0.101,2.551-0.309,3.784h-13.636h-11.056h-22.427c1.76,6.771,8.581,11.823,16.742,11.823
			c6.106,0,11.465-2.836,14.504-7.099l17.018,2.784C300.593,224.506,289.304,231.114,276.191,231.114z"/>
		<path fill-rule="evenodd" clip-rule="evenodd" d="M272.811,189.503c-6.321,0-11.778,3.26-14.356,7.994h28.711
			C284.585,192.763,279.132,189.503,272.811,189.503z"/>
	</g>
	<path fill-rule="evenodd" clip-rule="evenodd" fill="#034EA2" d="M105.4,85.569c6.458,0,12.917,0,19.373,0
		c5.514-28.991,17.501-52.437,43.012-64.288c7.745-3.597,9.136-3.589,16.179,1.362c22.005,15.472,35.033,45.635,49.46,76.54
		c9.869,21.137,26.911,44.245,45.043,55.709c9.715,6.141,27.03,4.024,35.108,3.221c-25.396-5.116-43.782-37.531-59.156-62.759
		c-28.583-46.912-53.705-83.35-77.486-82.127C144.061,12.525,111.112,47.348,105.4,85.569 M374.229,79.774h-23.713
		c-0.223,10.377-3.861,19.404-7.795,27.812c-8.188,17.525-22.042,31.365-40.86,41.969l0.546,0.398
		c3.755,2.249,7.715,3.915,11.851,4.749l4.845,0.918C347.54,141.279,374.687,104.952,374.229,79.774z"/>
	<path fill-rule="evenodd" clip-rule="evenodd" fill="#ED1C24" d="M153.939,32.837c2.908,2.974,5.77,6.372,8.438,10.253
		c9.31,13.532,19.114,31.672,29.514,50.631c18.57,33.94,35.847,55.162,58.48,64.393c-9.845,1.688-22.732,1.056-32.09-3.148
		c-32.381-14.531-52.058-75.642-74.912-110.625C146.401,40.138,149.903,36.278,153.939,32.837 M72.087,85.569H50.464
		c13.275-38.167,33.386-64.385,64.349-71.606c6.481-1.51,16.414-0.74,23.041-0.74C106.804,21.72,82.958,45.838,72.087,85.569z
		 M321.198,79.774h-20.849c-2.427,20.429-10.091,33.531-23.307,44.596c2.785,3.901,5.873,7.882,9.211,11.645
		c13.319-10.517,24.83-23.977,30.74-37.464C319.77,92.195,320.797,85.776,321.198,79.774z"/>
	<path fill-rule="evenodd" clip-rule="evenodd" fill="#00B04C" d="M160.826,27.671l10.013-6.393
		c6.944,4.562,14.437,12.204,21.54,22.534c9.307,13.53,18.929,31.044,29.329,50.003c18.578,33.938,37.021,55.067,59.649,64.298
		c-6.849,1.279-13.904,1.3-21.273,0.299C214.968,152.292,192.579,56.49,160.826,27.671 M346.31,79.774h-21.643
		c-0.125,6.988-2.198,12.746-4.172,18.769c-5.483,16.692-16.246,29.448-31.563,40.364c3.148,3.274,6.515,6.292,10.067,8.815
		C323.933,132.008,346.707,102.58,346.31,79.774z M100.555,85.569H78.932c9.401-36.755,31.811-63.811,64.352-71.606
		c6.482-1.51,13.529-0.74,20.159-0.74C132.387,21.72,111.427,45.838,100.555,85.569z"/>
</g>
</svg>
